<svg xmlns="http://www.w3.org/2000/svg" width="28.474" height="38.999" viewBox="0 0 28.474 38.999">
  <g id="_16_weight_loss" data-name="16_weight_loss" transform="translate(-121.42 -52.17)">
    <path id="Path_658" data-name="Path 658" d="M265.11,181.254a.735.735,0,1,1-.734-.734A.735.735,0,0,1,265.11,181.254Z" transform="translate(-128.612 -116.069)" fill="#ff6700"/>
    <path id="Path_659" data-name="Path 659" d="M145.34,65.445a9.585,9.585,0,0,1-.765-1.8,19.623,19.623,0,0,0,3.429-.8c.468-.167,1.891-.676,1.891-1.694s-1.429-1.531-1.9-1.7a19.931,19.931,0,0,0-3.5-.808A9.688,9.688,0,0,1,145.606,56l2.2-3.177-.943-.654L144.9,55.006a29.865,29.865,0,0,0-3.482-.905l-.22,1.127a28.621,28.621,0,0,1,3.082.785,10.913,10.913,0,0,0-.765,1.882,38.9,38.9,0,0,0-15.609-.122,11.118,11.118,0,0,0-.726-1.762,28.418,28.418,0,0,1,11.9-1.117l.136-1.141a29.889,29.889,0,0,0-3.689-.206,29.539,29.539,0,0,0-8.965,1.457c-.545-.8-1.824-2.679-1.922-2.827l-.957.637c.127.191,2.066,3.038,2.17,3.191a9.416,9.416,0,0,1,1.1,2.621,20.379,20.379,0,0,0-3.66.835c-.463.167-1.875.676-1.875,1.688s1.435,1.531,1.9,1.7a20.218,20.218,0,0,0,3.551.813,9.655,9.655,0,0,1-.76,1.781c-.242.439-.491.866-.755,1.317-2.429,4.159-5.182,8.873-2.146,24.4l1.127-.22c-1.441-7.368-1.551-12.214-1.016-15.71a14.3,14.3,0,0,1,8.324,1.435,6.524,6.524,0,0,1,2.823,2.994c-.04,1.512-.138,3.039-.287,4.541a60.6,60.6,0,0,1-1.074,6.725l1.121.245a61.763,61.763,0,0,0,1.095-6.854c.126-1.234.215-2.488.267-3.732a1.368,1.368,0,0,0,.167.011h.02a1.324,1.324,0,0,0,.239-.022c.051,1.25.14,2.5.267,3.742a61.534,61.534,0,0,0,1.095,6.854l1.121-.245a60.826,60.826,0,0,1-1.081-6.716q-.236-2.325-.295-4.663h-.014a6.742,6.742,0,0,1,2.824-2.87,14.361,14.361,0,0,1,8.2-1.435c.534,3.491.424,8.339-1.011,15.7l1.127.22c3.036-15.529.282-20.242-2.147-24.4-.268-.45-.517-.88-.759-1.319Zm-1.072-5.668c3.291.5,4.322,1.133,4.468,1.376-.145.242-1.167.871-4.431,1.371A8.921,8.921,0,0,1,144.268,59.777Zm-21.692,1.376c.148-.245,1.2-.892,4.605-1.4a8.944,8.944,0,0,1-.039,2.787C123.772,62.041,122.719,61.4,122.576,61.153Zm25.34,12.912a15.364,15.364,0,0,0-8.554,1.616,7.728,7.728,0,0,0-3.416,3.657.191.191,0,0,1-.174.12h-.02a.191.191,0,0,1-.176-.113,7.6,7.6,0,0,0-3.349-3.662,15.313,15.313,0,0,0-8.688-1.627,18.038,18.038,0,0,1,.8-2.722,108.229,108.229,0,0,0,11.415.607h.054a108.522,108.522,0,0,0,11.313-.6,18.087,18.087,0,0,1,.8,2.726ZM135.8,70.793h-.053a107.292,107.292,0,0,1-10.951-.565,32.292,32.292,0,0,1,1.551-2.888c.255-.437.52-.89.765-1.34a10.545,10.545,0,0,0,.9-2.177c.471.058.957.111,1.465.158l.106-1.148c-.452-.042-.892-.089-1.317-.141a10.372,10.372,0,0,0-.081-3.808,37.7,37.7,0,0,1,15.042.105,10.375,10.375,0,0,0-.062,3.688c-1.043.128-2.182.23-3.366.3l1.053-1.052-.812-.812-2.454,2.454,2.558,2.556.812-.811-1.185-1.184c1.293-.075,2.514-.185,3.651-.328a10.509,10.509,0,0,0,.908,2.194c.249.453.513.905.765,1.34a32.007,32.007,0,0,1,1.554,2.892,107.116,107.116,0,0,1-10.853.567Z" transform="translate(0)" fill="#ff6700"/>
  </g>
</svg>
