<svg id="checked" xmlns="http://www.w3.org/2000/svg" width="36.671" height="36.671" viewBox="0 0 36.671 36.671">
  <g id="Group_269" data-name="Group 269" transform="translate(8.707 4.607)">
    <g id="Group_268" data-name="Group 268">
      <path id="Path_534" data-name="Path 534" d="M148.483,64.733a1.382,1.382,0,0,0-1.954,0l-16.58,16.537-5.982-6.5a1.382,1.382,0,1,0-2.034,1.872L128.89,84.2a1.38,1.38,0,0,0,.987.446h.029a1.383,1.383,0,0,0,.976-.4l17.6-17.552A1.382,1.382,0,0,0,148.483,64.733Z" transform="translate(-121.568 -64.327)" fill="#fff"/>
    </g>
  </g>
  <g id="Group_271" data-name="Group 271">
    <g id="Group_270" data-name="Group 270">
      <path id="Path_535" data-name="Path 535" d="M35.289,16.953a1.382,1.382,0,0,0-1.382,1.382A15.571,15.571,0,1,1,18.336,2.764a1.382,1.382,0,1,0,0-2.764A18.336,18.336,0,1,0,36.671,18.336,1.382,1.382,0,0,0,35.289,16.953Z" fill="#fff"/>
    </g>
  </g>
</svg>
