<svg xmlns="http://www.w3.org/2000/svg" xmlns:xlink="http://www.w3.org/1999/xlink" width="111.741" height="111.741" viewBox="0 0 111.741 111.741"><defs><style>.a{fill:url(#a);}</style><linearGradient id="a" x1="0.5" x2="0.5" y2="1" gradientUnits="objectBoundingBox"><stop offset="0" stop-color="#ae2a78"/><stop offset="0.523" stop-color="#e84457"/><stop offset="1" stop-color="#ec6531"/></linearGradient></defs><g transform="translate(0 48.876)"><path class="a" d="M41.483,256.007l-.088-.022a1.066,1.066,0,0,0-.4-.066l-.946-.044.66-.682a13.558,13.558,0,0,0,3.783-9.414v-11.57a.986.986,0,0,0-.022-.242v-.088a5.769,5.769,0,0,0,.022-.594V225.96a1.765,1.765,0,0,0-1.76-1.76H27.978a10.843,10.843,0,0,0-10.822,10.822V245.8a13.635,13.635,0,0,0,3.761,9.414l.66.682-.946.044a1.244,1.244,0,0,0-.4.066l-.088.022A20.084,20.084,0,0,0,2,275.913v9.392a1.765,1.765,0,0,0,1.76,1.76H57.893a1.765,1.765,0,0,0,1.76-1.76v-9.392A20.123,20.123,0,0,0,41.483,256.007ZM20.675,235a7.313,7.313,0,0,1,7.3-7.3h13v5.565a5.13,5.13,0,0,1-5.125,5.125H20.675Zm0,10.778v-3.871H35.852a8.564,8.564,0,0,0,4.443-1.232l.66-.4V245.8a10.14,10.14,0,1,1-20.281-.022Zm16.013,13.66-5.851,5.851-5.851-5.851Zm19.445,24.108H5.519v-5.279h9.568a1.76,1.76,0,1,0,0-3.519H5.563l.044-.484a16.48,16.48,0,0,1,14.3-14.672l.22-.022,9.48,9.48a1.744,1.744,0,0,0,1.254.506,1.781,1.781,0,0,0,1.254-.506l9.48-9.48.22.022A16.473,16.473,0,0,1,56.2,275.913v7.633Z" transform="translate(-2 -224.2)"/></g><g transform="translate(54.089 0)"><path class="a" d="M287.383,33.829l-.088-.022a1.151,1.151,0,0,0-.4-.066l-.946-.044.66-.682a13.635,13.635,0,0,0,3.761-9.414V12.03a.987.987,0,0,0-.022-.242V11.7a5.776,5.776,0,0,0,.022-.594V3.76A1.765,1.765,0,0,0,288.615,2H273.878a10.843,10.843,0,0,0-10.822,10.822V23.6a13.558,13.558,0,0,0,3.783,9.414l.66.682-.946.044a1.246,1.246,0,0,0-.4.066l-.088.022A20.123,20.123,0,0,0,247.9,53.735v9.392a1.765,1.765,0,0,0,1.76,1.76h17.707a1.76,1.76,0,0,0,0-3.519H251.419V53.735A16.473,16.473,0,0,1,265.8,37.414l.22-.022,9.48,9.48a1.73,1.73,0,0,0,1.232.506,1.781,1.781,0,0,0,1.254-.506l9.48-9.48.22.022a16.473,16.473,0,0,1,14.386,16.321v7.633H285.426a1.76,1.76,0,1,0,0,3.519h18.367a1.765,1.765,0,0,0,1.76-1.76V53.735A20.123,20.123,0,0,0,287.383,33.829ZM266.575,12.822a7.313,7.313,0,0,1,7.3-7.3h13v5.565a5.13,5.13,0,0,1-5.125,5.125H266.575V12.822Zm10.14,30.289-5.851-5.851h11.7Zm0-9.37a10.167,10.167,0,0,1-10.162-10.162V19.707H281.73a8.777,8.777,0,0,0,4.443-1.232l.66-.4V23.6A10.1,10.1,0,0,1,276.715,33.741Z" transform="translate(-247.9 -2)"/></g><g transform="translate(81.144 59.368)"><path class="a" d="M374.419,273.66a1.781,1.781,0,0,1-.506,1.254,1.744,1.744,0,0,1-1.254.506,1.764,1.764,0,0,1-1.254-.528,1.73,1.73,0,0,1-.506-1.232,1.773,1.773,0,0,1,3.014-1.254h0A1.781,1.781,0,0,1,374.419,273.66Z" transform="translate(-370.9 -271.9)"/></g><g transform="translate(0 0)"><path class="a" d="M60.07,32.641l-9.326-9.326V12.558A10.561,10.561,0,0,0,40.186,2H12.558A10.561,10.561,0,0,0,2,12.558V31.915A10.561,10.561,0,0,0,12.558,42.473H40.186a10.483,10.483,0,0,0,9.766-6.555l.11-.286h8.755a1.751,1.751,0,0,0,1.628-1.078A1.73,1.73,0,0,0,60.07,32.641Zm-11.328-.506A1.725,1.725,0,0,0,47.026,33.5a7.015,7.015,0,0,1-6.863,5.455H12.558a7.031,7.031,0,0,1-7.039-7.039V12.558a7.031,7.031,0,0,1,7.039-7.039H40.186a7.045,7.045,0,0,1,7.039,7.039v11.5a1.882,1.882,0,0,0,.506,1.254l6.841,6.819Z" transform="translate(-2 -2)"/></g><g transform="translate(53.154 71.268)"><path class="a" d="M291.68,326H264.053a10.483,10.483,0,0,0-9.766,6.555l-.11.286h-8.755a1.751,1.751,0,0,0-1.628,1.078,1.722,1.722,0,0,0,.374,1.914l9.326,9.326v10.756a10.561,10.561,0,0,0,10.558,10.558H291.68a10.561,10.561,0,0,0,10.558-10.558V336.558A10.561,10.561,0,0,0,291.68,326Zm7.039,29.915a7.059,7.059,0,0,1-7.039,7.039H264.053a7.06,7.06,0,0,1-7.039-7.039v-11.5a1.781,1.781,0,0,0-.506-1.254l-6.841-6.819H255.5a1.725,1.725,0,0,0,1.716-1.364,7.015,7.015,0,0,1,6.863-5.455H291.68a7.059,7.059,0,0,1,7.039,7.039Z" transform="translate(-243.652 -326)"/></g><g transform="translate(82.261 85.472)"><path class="a" d="M390.652,393.55l-7.391,7.413a1.744,1.744,0,0,1-1.254.506,1.781,1.781,0,0,1-1.254-.506l-4.267-4.267a1.766,1.766,0,0,1,0-2.486,1.726,1.726,0,0,1,1.254-.506,1.82,1.82,0,0,1,1.254.506l3.035,3.035,6.159-6.159a1.766,1.766,0,0,1,2.486,0A1.72,1.72,0,0,1,390.652,393.55Z" transform="translate(-375.975 -390.575)"/></g><g transform="translate(19.599 7.506)"><path class="a" d="M100.338,50.175l-.308.088v.968a1.76,1.76,0,0,1-3.519,0V50.065a3.248,3.248,0,0,1,2.574-3.189,3.667,3.667,0,0,0-.528-7.237h-.264a3.72,3.72,0,0,0-2.508.99,3.644,3.644,0,0,0-1.166,2.684,1.76,1.76,0,1,1-3.519,0,7.244,7.244,0,0,1,2.288-5.257A7.105,7.105,0,0,1,98.8,36.141a7.211,7.211,0,0,1,4.575,2.09,7.1,7.1,0,0,1,2.09,4.575A7.2,7.2,0,0,1,100.338,50.175Z" transform="translate(-91.1 -36.125)"/></g><g transform="translate(25.01 29.277)"><path class="a" d="M119.219,136.86a1.728,1.728,0,0,1-1.76,1.76,1.8,1.8,0,0,1-1.254-.528,1.73,1.73,0,0,1-.506-1.232,1.882,1.882,0,0,1,.506-1.254,1.744,1.744,0,0,1,1.254-.506,1.728,1.728,0,0,1,1.76,1.76Z" transform="translate(-115.7 -135.1)"/></g><g transform="translate(20.127 99.423)"><path class="a" d="M97.019,455.76a1.728,1.728,0,1,1-.506-1.254A1.781,1.781,0,0,1,97.019,455.76Z" transform="translate(-93.5 -454)"/></g></svg>