<svg xmlns="http://www.w3.org/2000/svg" xmlns:xlink="http://www.w3.org/1999/xlink" width="112.62" height="106.95" viewBox="0 0 112.62 106.95"><defs><style>.a{fill:url(#a);}</style><linearGradient id="a" x1="0.5" x2="0.5" y2="1" gradientUnits="objectBoundingBox"><stop offset="0" stop-color="#ae2a78"/><stop offset="0.523" stop-color="#e84457"/><stop offset="1" stop-color="#ec6531"/></linearGradient></defs><path class="a" d="M111.146,59.426a2.39,2.39,0,0,0-2.718.591c-3,3.261-6.844,7.8-8.161,10.917-1.715,4.058-1.83,7.793-.489,9.9q-.616,1.12-1.285,2.211c-.372-3.236-2.014-7.93-3.4-11.463a2.372,2.372,0,0,0-4.465.139c-1.288,3.988-2.8,9.414-2.7,12.619.117,3.784,1.263,6.824,2.964,8.334-.075.075-.15.152-.225.226a4.125,4.125,0,0,0-2.868,2.492c-.02.058-.036.116-.053.174q-.206.173-.414.345a17.378,17.378,0,0,0-1.177-3.887c-1.263-2.948-4.926-7.228-7.777-10.3a2.372,2.372,0,0,0-4.106,1.759c.257,4.183.829,9.787,2.092,12.735a15.545,15.545,0,0,0,3.231,4.953q-.445.245-.893.48a6.188,6.188,0,0,0-2.4.826v-1.734a3.527,3.527,0,0,0-3.523-3.523H70.747a3.392,3.392,0,0,0-1.363-2.9L64.972,90.98a5.988,5.988,0,0,1-2.359-4.747V79.869a22.386,22.386,0,0,0,12.611-9.574l.209-.332H79.22A20.106,20.106,0,0,0,91.3,65.9l12.406-9.414a18.227,18.227,0,0,0-10.8-32.745c-1.718-.02-3.389-.023-4.984-.009V16.478a3.594,3.594,0,0,0-3.59-3.589H44.422a1.645,1.645,0,1,0,0,3.291H84.335a.3.3,0,0,1,.3.3V36.313a44.568,44.568,0,0,1-6.887,23.818l-5.306,8.408A19.114,19.114,0,0,1,56.185,77.5h-.093a19.116,19.116,0,0,1-16.265-9.119L34.651,60.01a44.6,44.6,0,0,1-6.665-23.462V16.478a.3.3,0,0,1,.3-.3h8.426a1.645,1.645,0,0,0,0-3.291H28.286a3.594,3.594,0,0,0-3.59,3.589v7.251c-1.594-.014-3.264-.011-4.984.009a18.227,18.227,0,0,0-10.8,32.745L21.317,65.9A20.106,20.106,0,0,0,33.4,69.962h3.533l.094.152a22.387,22.387,0,0,0,12.3,9.622v6.5a5.989,5.989,0,0,1-2.359,4.747l-4.412,3.344a3.391,3.391,0,0,0-1.363,2.9H39.85a3.527,3.527,0,0,0-3.523,3.523v1.734a6.188,6.188,0,0,0-2.408-.827c-.3-.156-.595-.317-.891-.48a15.539,15.539,0,0,0,3.231-4.953c1.263-2.948,1.835-8.552,2.092-12.735a2.372,2.372,0,0,0-4.106-1.759c-2.851,3.071-6.514,7.351-7.777,10.3a17.369,17.369,0,0,0-1.177,3.888q-.208-.172-.414-.346c-.017-.058-.033-.116-.053-.174A4.125,4.125,0,0,0,21.958,92.9c-.075-.074-.15-.151-.225-.226,1.7-1.51,2.846-4.55,2.963-8.334.1-3.2-1.415-8.631-2.7-12.619a2.372,2.372,0,0,0-4.465-.138c-1.388,3.533-3.03,8.228-3.4,11.464q-.67-1.09-1.285-2.212c1.341-2.108,1.225-5.843-.489-9.9-1.316-3.115-5.164-7.656-8.16-10.917a2.389,2.389,0,0,0-2.718-.591A2.389,2.389,0,0,0,0,61.786c.25,4.422.824,10.347,2.14,13.461,1.91,4.522,4.916,7.343,7.589,7.343.1,0,.208-.006.311-.015a56.3,56.3,0,0,0,4.625,7.045,1.655,1.655,0,0,0,.211.223,7.046,7.046,0,0,0,1.9,2.937,18.446,18.446,0,0,0-2.717.727c-3.028,1.056-7.552,4.414-10.813,7.045a2.348,2.348,0,0,0-.751,2.627c.432,1.355,1.826,1.717,3.11,1.594,4.068,0,9.142-.226,11.96-1.209h0a13.188,13.188,0,0,0,6.526-4.387q.648.513,1.307,1a4.244,4.244,0,0,0,1.593,2.373c-3.026,1.11-7.457,4.4-10.668,6.992a2.348,2.348,0,0,0-.751,2.627c.432,1.355,1.826,1.717,3.11,1.594,4.068,0,9.142-.226,11.96-1.209a15.239,15.239,0,0,0,5.523-3.23c.054-.053.106-.1.157-.157v7.147a3.527,3.527,0,0,0,3.523,3.523H60.857a1.645,1.645,0,0,0,0-3.291H39.849a.233.233,0,0,1-.232-.232V100.746a.232.232,0,0,1,.232-.232h32.92a.233.233,0,0,1,.232.232v15.569a.232.232,0,0,1-.232.232H68.8a1.645,1.645,0,0,0,0,3.291h3.974a3.527,3.527,0,0,0,3.523-3.523v-7.147c.051.052.1.1.157.157a15.239,15.239,0,0,0,5.523,3.23h0c2.819.983,7.892,1.209,11.96,1.209,1.284.123,2.679-.24,3.11-1.594a2.348,2.348,0,0,0-.751-2.627c-3.21-2.59-7.642-5.882-10.668-6.992a4.247,4.247,0,0,0,1.593-2.375q.659-.489,1.307-1a13.191,13.191,0,0,0,6.525,4.387h0c2.819.983,7.892,1.209,11.96,1.209,1.284.123,2.679-.24,3.11-1.594a2.347,2.347,0,0,0-.751-2.627c-3.261-2.631-7.785-5.989-10.813-7.045a18.462,18.462,0,0,0-2.717-.727A6.977,6.977,0,0,0,97.7,89.935l.018-.021a56.239,56.239,0,0,0,4.853-7.339c.1.009.207.015.312.015,2.672,0,5.678-2.821,7.589-7.343,1.316-3.114,1.89-9.039,2.14-13.461a2.386,2.386,0,0,0-1.469-2.36ZM80.164,62.467A12.616,12.616,0,0,0,86.8,59.955l4.983-3.781a1.645,1.645,0,0,0-1.989-2.621l-4.983,3.781a9.244,9.244,0,0,1-2.405,1.31,47.843,47.843,0,0,0,5.523-22.331V34.479c1.556-.015,3.182-.013,4.856.007A7.478,7.478,0,0,1,97.212,47.92l-1.78,1.351a1.645,1.645,0,1,0,1.989,2.621l1.78-1.351A10.768,10.768,0,0,0,92.819,31.2c-1.686-.02-3.325-.022-4.9-.007v-4.17c1.581-.014,3.238-.011,4.945.009a14.936,14.936,0,0,1,8.852,26.833L89.314,63.276a16.8,16.8,0,0,1-10.1,3.4h-1.71Zm-50.1-3.883a9.231,9.231,0,0,1-2.251-1.25L15.408,47.92A7.478,7.478,0,0,1,19.84,34.486c1.673-.02,3.3-.021,4.856-.007v2.069A47.875,47.875,0,0,0,30.065,58.584ZM33.4,66.672a16.8,16.8,0,0,1-10.1-3.4L10.9,53.862a14.936,14.936,0,0,1,8.852-26.833c1.708-.02,3.365-.023,4.945-.009v4.17c-1.571-.015-3.21-.013-4.9.007a10.768,10.768,0,0,0-6.382,19.346l12.406,9.414a12.675,12.675,0,0,0,6.468,2.5L34.9,66.672Zm-3.907,26.65a34.576,34.576,0,0,1,5.376-7.38,34.585,34.585,0,0,1-1.635,8.983c-1.615,3.769-3.853,5.149-4.332,4.944S27.878,97.092,29.493,93.322ZM17.339,84.113a34.575,34.575,0,0,1,2.31-8.833,34.576,34.576,0,0,1,1.759,8.959c-.127,4.084-1.693,6.185-2.222,6.185H19.18C18.657,90.408,17.212,88.213,17.339,84.113ZM5.174,73.967c-.74-1.751-1.347-5.267-1.714-9.84,3.024,3.451,5.121,6.337,5.861,8.088,1.7,4.017,1.141,6.807.539,7.061s-2.989-1.291-4.687-5.309Zm11.312,26.491a34.567,34.567,0,0,1-9.075,1.009,34.566,34.566,0,0,1,7.734-4.852,12.753,12.753,0,0,1,4.15-.776c1.453,0,2.324.357,2.423.64.172.494-1.359,2.629-5.232,3.979Zm17.39,6.511a12.1,12.1,0,0,1-4.311,2.482h0a34.567,34.567,0,0,1-9.074,1.009,34.568,34.568,0,0,1,7.735-4.852,11.978,11.978,0,0,1,4.92-.737c1.119.113,1.6.46,1.653.6s-.114.714-.921,1.5Zm10.617-9.85a.129.129,0,0,1,.053-.173L48.958,93.6a9.3,9.3,0,0,0,3.662-7.369V80.514a22.873,22.873,0,0,0,3.456.28h.109a22.838,22.838,0,0,0,3.137-.218v5.657A9.3,9.3,0,0,0,62.984,93.6L67.4,96.946a.155.155,0,0,1-.093.278H44.64A.129.129,0,0,1,44.493,97.119ZM92.971,75.28a34.585,34.585,0,0,1,2.31,8.833c.127,4.1-1.318,6.295-1.841,6.311h-.006c-.529,0-2.1-2.1-2.222-6.185A34.565,34.565,0,0,1,92.971,75.28ZM79.385,94.925a34.586,34.586,0,0,1-1.635-8.983,34.565,34.565,0,0,1,5.376,7.38c1.615,3.77,1.072,6.341.591,6.547S81,98.694,79.385,94.925Zm3.671,14.525a12.094,12.094,0,0,1-4.312-2.482c-.806-.784-.97-1.357-.921-1.5s.533-.488,1.653-.6a11.983,11.983,0,0,1,4.92.737,34.572,34.572,0,0,1,7.734,4.852A34.561,34.561,0,0,1,83.056,109.45Zm22.152-7.984a34.565,34.565,0,0,1-9.075-1.009h0c-3.873-1.35-5.4-3.486-5.232-3.98s2.7-1.214,6.572.136A34.575,34.575,0,0,1,105.209,101.466Zm2.237-27.5c-1.7,4.017-4.082,5.565-4.687,5.309s-1.158-3.044.539-7.061c.74-1.751,2.838-4.637,5.861-8.088-.367,4.573-.974,8.09-1.714,9.84Z" transform="translate(0.001 -12.888)"/><path class="a" d="M202.816,112.9a14.328,14.328,0,1,0-14.328-14.328A14.344,14.344,0,0,0,202.816,112.9Zm0-25.365a11.038,11.038,0,1,1-11.038,11.038A11.05,11.05,0,0,1,202.816,87.534Z" transform="translate(-147.028 -68.548)"/><path class="a" d="M220.589,124.228l-.435,2.534a2.474,2.474,0,0,0,3.589,2.608l2.276-1.2,2.275,1.2a2.474,2.474,0,0,0,3.589-2.607l-.435-2.534,1.841-1.794a2.473,2.473,0,0,0-1.371-4.219l-2.544-.37-1.138-2.305a2.458,2.458,0,0,0-2.218-1.379h0a2.459,2.459,0,0,0-2.218,1.379l-1.138,2.305-2.544.37a2.473,2.473,0,0,0-1.371,4.219Zm2.972-3.189a2.473,2.473,0,0,0,1.863-1.353l.6-1.206.6,1.207a2.473,2.473,0,0,0,1.862,1.353l1.331.193-.963.939a2.473,2.473,0,0,0-.712,2.19l.227,1.326-1.19-.626a2.474,2.474,0,0,0-2.3,0l-1.19.626.227-1.326a2.474,2.474,0,0,0-.711-2.189l-.963-.939Z" transform="translate(-170.047 -91.884)"/></svg>