<svg xmlns="http://www.w3.org/2000/svg" width="41.517" height="43.634" viewBox="0 0 41.517 43.634"><defs><style>.a{fill:#2e2828;}</style></defs><g transform="translate(-9.23 -11.74)"><path class="a" d="M134.714,59.893H130.4v4.555h4.165v1.638a7.436,7.436,0,0,1-.947.417,8.539,8.539,0,0,1-2.932.489,7.452,7.452,0,0,1-3.615-.86,6.277,6.277,0,0,1-1.806-1.451,6.346,6.346,0,0,1-.674-.951,7.384,7.384,0,0,1,0-7.038,6.22,6.22,0,0,1,.666-.938,6.148,6.148,0,0,1,1.828-1.449,7.734,7.734,0,0,1,3.663-.845,7.627,7.627,0,0,1,2.889.542,7.758,7.758,0,0,1,2.681,1.845l3.2-2.9a10.192,10.192,0,0,0-3.878-2.719,13.281,13.281,0,0,0-4.58-.925c-.185-.008-.374-.011-.562-.011a13.049,13.049,0,0,0-6.095,1.4,11.271,11.271,0,0,0-1.853,1.2,10.266,10.266,0,0,0-2.379,2.7,11.186,11.186,0,0,0,0,11.269,10.406,10.406,0,0,0,2.374,2.7,11.386,11.386,0,0,0,1.828,1.194,12.8,12.8,0,0,0,6.033,1.4c.221,0,.44,0,.659-.015a16.079,16.079,0,0,0,3.991-.679,13.1,13.1,0,0,0,4.063-1.995V59.893Z" transform="translate(-88.773 -30.464)"/><path class="a" d="M41.525,41.922a14.047,14.047,0,0,1-6.142-1.553,12.7,12.7,0,0,1-2.036-1.33c-.077-.062-.155-.126-.23-.191a13.165,13.165,0,0,1-7.623,2.085H17.729V18.588h7.765a13.167,13.167,0,0,1,7.629,2.089c.075-.064.153-.126.232-.189a12.44,12.44,0,0,1,2.062-1.336A14.291,14.291,0,0,1,41.529,17.6a17.6,17.6,0,0,0-5.044-3.623,23.826,23.826,0,0,0-10.571-2.24H9.23V47.781H25.914a23.826,23.826,0,0,0,10.571-2.24A17.611,17.611,0,0,0,41.525,41.922Z" transform="translate(0 0)"/><path class="a" d="M10.651,219.346a2.029,2.029,0,0,1,.989-.242,1.851,1.851,0,0,1,1.359.528l.3-.3a1.884,1.884,0,0,0-.726-.487,2.642,2.642,0,0,0-.947-.164,2.5,2.5,0,0,0-1.223.3,2.192,2.192,0,0,0-.849.821,2.388,2.388,0,0,0,0,2.351,2.192,2.192,0,0,0,.849.821,2.484,2.484,0,0,0,1.217.3,2.79,2.79,0,0,0,.908-.147,2.2,2.2,0,0,0,.747-.425v-1.719h-.457v1.519a2.138,2.138,0,0,1-2.162.1,1.807,1.807,0,0,1-.689-.67,1.83,1.83,0,0,1-.251-.953,1.858,1.858,0,0,1,.251-.957A1.73,1.73,0,0,1,10.651,219.346Z" transform="translate(-0.008 -167.891)"/><path class="a" d="M35.959,218.88,33.9,223.386h.5l.542-1.2h2.51l.542,1.2h.5L36.43,218.88ZM35.11,221.8l1.081-2.421,1.081,2.421Z" transform="translate(-20.015 -168.054)"/><path class="a" d="M63.226,222.775,61.9,218.88h-.443l-1.345,3.876-1.3-3.876H58.32l1.519,4.506h.5l1.327-3.844,1.319,3.844h.5L65,218.88h-.459Z" transform="translate(-39.827 -168.054)"/><path class="a" d="M101.609,221.316a1.473,1.473,0,0,0,.268-.893,1.4,1.4,0,0,0-.489-1.132,2.031,2.031,0,0,0-1.351-.411H98.35v4.506h.476v-1.428h1.21a3.177,3.177,0,0,0,.36-.019l1.03,1.449h.521l-1.1-1.545A1.486,1.486,0,0,0,101.609,221.316Zm-1.587.236h-1.2v-2.259h1.2a1.569,1.569,0,0,1,1.023.292,1.16,1.16,0,0,1,0,1.67A1.548,1.548,0,0,1,100.022,221.552Z" transform="translate(-72.303 -168.054)"/><path class="a" d="M124.466,218.976a2.606,2.606,0,0,0-2.421,0,2.193,2.193,0,0,0-.849.821,2.4,2.4,0,0,0,0,2.344,2.193,2.193,0,0,0,.849.821,2.606,2.606,0,0,0,2.421,0,2.213,2.213,0,0,0,.847-.821,2.388,2.388,0,0,0,0-2.351A2.174,2.174,0,0,0,124.466,218.976Zm.436,2.951a1.759,1.759,0,0,1-.676.67,2.057,2.057,0,0,1-1.934,0,1.765,1.765,0,0,1-.683-.67,1.864,1.864,0,0,1-.247-.957,1.892,1.892,0,0,1,.247-.957,1.766,1.766,0,0,1,.683-.67,2.057,2.057,0,0,1,1.934,0,1.746,1.746,0,0,1,.676.67,1.9,1.9,0,0,1,.245.957A1.92,1.92,0,0,1,124.9,221.927Z" transform="translate(-90.59 -167.891)"/><path class="a" d="M159.821,213.508l1.044-.8h-.611l-.883.8Z" transform="translate(-121.809 -163.048)"/><path class="a" d="M154.927,222.537l-2.9-3.657h-.392v4.506h.476v-3.657l2.9,3.657h.392V218.88h-.47Z" transform="translate(-115.53 -168.054)"/><path class="a" d="M179.695,221.02a6.673,6.673,0,0,0-.8-.242c-.279-.068-.5-.132-.666-.191a1.088,1.088,0,0,1-.411-.251.588.588,0,0,1-.164-.434.709.709,0,0,1,.3-.589,1.452,1.452,0,0,1,.891-.228,2.316,2.316,0,0,1,.63.092,2.206,2.206,0,0,1,.606.279l.16-.379a2.169,2.169,0,0,0-.64-.292,2.765,2.765,0,0,0-.757-.106,2.265,2.265,0,0,0-.926.168,1.222,1.222,0,0,0-.553.447,1.121,1.121,0,0,0-.181.621.965.965,0,0,0,.215.662,1.338,1.338,0,0,0,.519.364,6.817,6.817,0,0,0,.811.247,6.131,6.131,0,0,1,.662.191,1.138,1.138,0,0,1,.4.247.577.577,0,0,1,.164.432.681.681,0,0,1-.3.576,1.522,1.522,0,0,1-.908.223,2.408,2.408,0,0,1-.838-.151,1.779,1.779,0,0,1-.651-.4l-.187.366a1.776,1.776,0,0,0,.711.425,2.893,2.893,0,0,0,.962.16,2.359,2.359,0,0,0,.934-.164,1.238,1.238,0,0,0,.564-.443,1.108,1.108,0,0,0,.183-.621.945.945,0,0,0-.213-.653A1.283,1.283,0,0,0,179.695,221.02Z" transform="translate(-136.169 -167.891)"/><path class="a" d="M204.018,218.88h-.547l-2.646,2.723V218.88h-.476v4.506h.476V222.2l.921-.932,1.842,2.117h.566l-2.087-2.466Z" transform="translate(-155.057 -168.054)"/><rect class="a" width="0.476" height="4.506" transform="translate(49.869 50.826)"/></g></svg>