<svg xmlns="http://www.w3.org/2000/svg" xmlns:xlink="http://www.w3.org/1999/xlink" width="111.324" height="111.763" viewBox="0 0 111.324 111.763"><defs><style>.a{fill:url(#a);}</style><linearGradient id="a" x1="0.5" x2="0.5" y2="1" gradientUnits="objectBoundingBox"><stop offset="0" stop-color="#ae2a78"/><stop offset="0.523" stop-color="#e84457"/><stop offset="1" stop-color="#ec6531"/></linearGradient></defs><g transform="translate(53.693 0)"><path class="a" d="M250.563,3.782v9.876a1.782,1.782,0,0,1-3.563,0V3.782a1.782,1.782,0,0,1,3.563,0Z" transform="translate(-247 -2)"/></g><g transform="translate(0 18.114)"><path class="a" d="M112.222,142.212l-3.915-3.893a6.952,6.952,0,0,0-8.249-1.166l-.286.154-7.919-7.919.66-.66a7.223,7.223,0,0,0-3.629-12.186l-.462-.088.132-.462a7.031,7.031,0,0,0,.286-2.024,7.2,7.2,0,0,0-2.112-5.125,6.939,6.939,0,0,0-3.629-1.958l-.462-.088.132-.462a7.031,7.031,0,0,0,.286-2.024,7.2,7.2,0,0,0-5.741-7.083l-.462-.11.132-.462a7.222,7.222,0,0,0-7.721-9.216H69.2L54.525,84.67c-2.134-.4-4.773-.682-6.4.792a4.066,4.066,0,0,0-.308.308l-.2.22-.286-.11a7.222,7.222,0,0,0-9.722,6.8A6.924,6.924,0,0,0,37.9,94.7l.132.462-.462.088a7.171,7.171,0,0,0-3.629,1.958,7.317,7.317,0,0,0-2.134,5.125,7.18,7.18,0,0,0,.286,2.046l.132.462-.462.088a7.2,7.2,0,0,0-5.741,7.083,7.3,7.3,0,0,0,1.254,4.091l.33.484-.55.2a7.248,7.248,0,0,0-2.794,11.988l.66.66L17,137.285l-.286-.132a6.949,6.949,0,0,0-7.875,1.364l-3.915,3.915A6.832,6.832,0,0,0,2.9,147.338a6.962,6.962,0,0,0,2.024,4.905l4.883,4.883a1.8,1.8,0,0,0,1.254.528,1.678,1.678,0,0,0,1.254-.528,1.8,1.8,0,0,0,.528-1.254,1.678,1.678,0,0,0-.528-1.254l-4.883-4.883a3.378,3.378,0,0,1-.99-2.4,3.341,3.341,0,0,1,.99-2.4l3.915-3.915a3.393,3.393,0,0,1,4.157-.506l.088.044.066.088a1.412,1.412,0,0,0,.22.286,1.612,1.612,0,0,0,.506.352l.066.044,22.568,22.546.044.066a1.727,1.727,0,0,0,.352.506,1.611,1.611,0,0,0,.506.352l.088.044.066.066a3.381,3.381,0,0,1-.132,4.641l-3.915,3.915a3.425,3.425,0,0,1-4.817,0l-4.883-4.883a1.782,1.782,0,0,0-3.035,1.254,1.678,1.678,0,0,0,.528,1.254l4.883,4.883a6.957,6.957,0,0,0,9.81,0l3.915-3.915a6.87,6.87,0,0,0,2.024-4.905,7.01,7.01,0,0,0-1.056-3.7l-.176-.308L51.8,154.6c1.078-1.122,3.717-.946,6.489-.748a31.169,31.169,0,0,0,5.741.044l.22-.022,9.48,9.458-.154.286a7.063,7.063,0,0,0-.858,3.343,6.923,6.923,0,0,0,2.024,4.905l3.915,3.915A6.962,6.962,0,0,0,83.56,177.8a6.885,6.885,0,0,0,4.905-2.024L112.2,152.067a7.037,7.037,0,0,0,.022-9.854Zm-61.788-54.2.33-.088a7.508,7.508,0,0,1,3.057.2L64.248,90.1l-6.555,6.555-.286-.132a14.632,14.632,0,0,1-3.563-2.574c-1.914-1.826-3.233-3.893-3.387-5.257v-.308Zm-8.249,2.024a3.7,3.7,0,0,1,4.685-.44l.132.088.044.176c.7,2.926,3.255,5.609,4.311,6.643.77.748,3.5,3.189,6.181,3.849l.154.044.088.132a3.59,3.59,0,0,1,.66,2.112,3.658,3.658,0,0,1-1.078,2.618,3.712,3.712,0,0,1-2.618,1.078,3.751,3.751,0,0,1-2.618-1.078l-9.986-9.964a3.661,3.661,0,0,1-1.078-2.6A3.9,3.9,0,0,1,42.185,90.037ZM36.4,99.716a3.691,3.691,0,0,1,5.213,0l8.051,8.029a3.7,3.7,0,0,1,0,5.213,3.751,3.751,0,0,1-2.618,1.078,3.658,3.658,0,0,1-2.618-1.078l-8.051-8.029a3.658,3.658,0,0,1-1.078-2.618A3.776,3.776,0,0,1,36.4,99.716Zm-5.785,9.656a3.516,3.516,0,0,1,1.188-.792,3.854,3.854,0,0,1,1.43-.286,3.641,3.641,0,0,1,2.6,1.056l6.115,6.115a3.661,3.661,0,0,1,1.078,2.6,3.68,3.68,0,0,1-3.7,3.7,3.658,3.658,0,0,1-2.618-1.078l-6.115-6.093a3.658,3.658,0,0,1-1.078-2.618A3.761,3.761,0,0,1,30.615,109.372Zm-3.871,11.614a3.516,3.516,0,0,1,1.188-.792,3.83,3.83,0,0,1,1.408-.286,3.658,3.658,0,0,1,2.618,1.078l2.222,2.222a3.572,3.572,0,0,1,1.078,2.6,3.751,3.751,0,0,1-1.078,2.618,3.621,3.621,0,0,1-2.618,1.078,3.658,3.658,0,0,1-2.618-1.078L26.722,126.2A3.725,3.725,0,0,1,26.744,120.986Zm41.331,31.675.462-.286a8.585,8.585,0,0,0,1.386-1.122L71.9,149.3a1.764,1.764,0,0,0,.528-1.254,1.678,1.678,0,0,0-.528-1.254,1.764,1.764,0,0,0-1.254-.528h0a1.713,1.713,0,0,0-1.254.528l-1.98,1.98c-2.024,2.024-5.5,1.76-8.887,1.54-3.475-.242-7.039-.484-9.282,1.826l-8.491,8.425L19.727,139.551l7.787-7.765.286.176a7.318,7.318,0,0,0,3.783,1.056,7.247,7.247,0,0,0,7.259-7.237v-.506h.484a7.21,7.21,0,0,0,7.237-7.237v-.506h.484a7.254,7.254,0,0,0,5.147-2.112,7.125,7.125,0,0,0,2.112-5.169v-.44h.484a7.21,7.21,0,0,0,7.259-7.237,7.377,7.377,0,0,0-1.056-3.783l-.176-.286,6.555-6.533a3.876,3.876,0,0,1,1.892-1.012h.044c.044,0,.11-.022.154-.022h.022a3.678,3.678,0,0,1,3.123,6.247l-4.157,4.157a1.764,1.764,0,0,0-.528,1.254,1.713,1.713,0,0,0,.528,1.254,1.764,1.764,0,0,0,1.254.528,1.678,1.678,0,0,0,1.254-.528l2.222-2.222a3.684,3.684,0,0,1,5.213.022,3.571,3.571,0,0,1,1.078,2.6,3.751,3.751,0,0,1-1.078,2.618l-4.157,4.157a1.764,1.764,0,0,0-.528,1.254,1.678,1.678,0,0,0,.528,1.254,1.753,1.753,0,0,0,2.508,0l2.222-2.222a3.712,3.712,0,0,1,2.618-1.078,3.751,3.751,0,0,1,2.618,1.078,3.7,3.7,0,0,1,1.078,2.6,3.658,3.658,0,0,1-1.078,2.618l-3.871,3.871a1.793,1.793,0,0,0,0,2.508,1.764,1.764,0,0,0,1.254.528,1.678,1.678,0,0,0,1.254-.528l1.936-1.936a3.691,3.691,0,0,1,5.213,0,3.7,3.7,0,0,1,0,5.213l-4.993,4.971a1.753,1.753,0,0,0,0,2.508,1.8,1.8,0,0,0,1.254.528,1.713,1.713,0,0,0,1.254-.528l1.8-1.8,7.787,7.787L76.06,160.645Zm41.639-3.123L85.958,173.249a3.4,3.4,0,0,1-4.8,0l-3.915-3.915a3.4,3.4,0,0,1,0-4.8l23.734-23.712a3.4,3.4,0,0,1,4.8,0l3.915,3.893a3.378,3.378,0,0,1,.99,2.4A3.284,3.284,0,0,1,109.714,149.537Z" transform="translate(-2.9 -84.352)"/></g><g transform="translate(17.773 0.594)"><path class="a" d="M94.808,15.786a1.8,1.8,0,0,1-1.254.528,1.678,1.678,0,0,1-1.254-.528L84.228,7.735A1.764,1.764,0,0,1,83.7,6.482a1.713,1.713,0,0,1,.528-1.254A1.764,1.764,0,0,1,85.482,4.7h0a1.678,1.678,0,0,1,1.254.528l8.073,8.051A1.793,1.793,0,0,1,94.808,15.786Z" transform="translate(-83.7 -4.7)"/></g><g transform="translate(81.54 0.594)"><path class="a" d="M385.236,6.482a1.678,1.678,0,0,1-.528,1.254l-8.073,8.051a1.764,1.764,0,0,1-1.254.528,1.678,1.678,0,0,1-1.254-.528,1.764,1.764,0,0,1-.528-1.254,1.713,1.713,0,0,1,.528-1.254L382.2,5.228a1.753,1.753,0,0,1,2.508,0A1.8,1.8,0,0,1,385.236,6.482Z" transform="translate(-373.6 -4.7)"/></g><g transform="translate(12.978 94.625)"><path class="a" d="M64.957,435.2a1.726,1.726,0,0,1-1.276.528,1.82,1.82,0,0,1-1.254-.506,1.764,1.764,0,0,1-.528-1.254,1.744,1.744,0,0,1,.506-1.254,1.781,1.781,0,0,1,2.552,2.486Z" transform="translate(-61.9 -432.187)"/></g><g transform="translate(72.948 73.05)"><path class="a" d="M337.1,337.465a1.69,1.69,0,0,1-.792.2,1.768,1.768,0,0,1-1.584-.968,1.8,1.8,0,0,1,.792-2.4,1.757,1.757,0,0,1,.792-.2,1.519,1.519,0,0,1,.55.088,1.852,1.852,0,0,1,1.034.88A1.788,1.788,0,0,1,337.1,337.465Z" transform="translate(-334.539 -334.1)"/></g></svg>